<svg xmlns="http://www.w3.org/2000/svg" width="640" height="400" fill="none"><path fill="#fff" d="M0 0h640v400H0z"/><mask id="a" width="640" height="400" x="0" y="0" maskUnits="userSpaceOnUse" style="mask-type:luminance"><path fill="#fff" d="M0 0h640v400H0z"/></mask><g mask="url(#a)"><path fill="#DBE2EA" fill-rule="evenodd" d="M120.5 400.902 506 400.5V5.902l-385.5 395Z" clip-rule="evenodd"/><path fill="#14A38B" fill-rule="evenodd" d="m223 213 185 187h205V0H223v213Z" clip-rule="evenodd"/><path fill="#D6CF6E" fill-rule="evenodd" d="M436 0h177v210H436V0Z" clip-rule="evenodd"/><path fill="#2C2738" d="M223 0h213v93H223z"/><path fill="#fff" fill-rule="evenodd" d="M436 0v213H223L436 0Z" clip-rule="evenodd"/><path fill="#2C2738" fill-rule="evenodd" d="m482 244 156 156H482V244Z" clip-rule="evenodd"/><path fill="#F2AC57" fill-rule="evenodd" d="M640-27 425 188l215 214V-27Z" clip-rule="evenodd"/><path fill="#D6CF6E" fill-rule="evenodd" d="M223 213V0H8" clip-rule="evenodd"/><path fill="#F2AC57" fill-rule="evenodd" d="M223 77c16.569 0 30-13.431 30-30 0-16.569-13.431-30-30-30-16.569 0-30 13.431-30 30 0 16.569 13.431 30 30 30Z" clip-rule="evenodd"/><path fill="#fff" fill-rule="evenodd" d="M549 93c16.569 0 30-13.431 30-30 0-16.569-13.431-30-30-30-16.569 0-30 13.431-30 30 0 16.569 13.431 30 30 30ZM352 383c20.987 0 38-17.013 38-38s-17.013-38-38-38-38 17.013-38 38 17.013 38 38 38Z" clip-rule="evenodd"/><path fill="#2C2738" fill-rule="evenodd" d="m326 317.709 53.635 53.635c6.628-6.83 10.709-16.146 10.709-26.414 0-20.948-16.982-37.93-37.93-37.93-10.269 0-19.585 4.081-26.414 10.709Z" clip-rule="evenodd"/><path fill="#D6CF6E" fill-rule="evenodd" d="M366.125 271.668c39.284 39.284 103.551 39.284 142.835 0 39.992-39.992 39.992-104.258.707-143.543-39.991-39.992-104.258-39.992-144.249 0-39.285 39.285-39.285 103.551.707 143.543Z" clip-rule="evenodd"/><path fill="#F2AC57" fill-rule="evenodd" d="M403.772 234.362c18.965 18.965 49.99 18.965 68.955 0 19.306-19.307 19.306-50.332.341-69.297a49.103 49.103 0 0 0-69.637 0c-18.965 18.965-18.965 49.99.341 69.297Z" clip-rule="evenodd"/><path fill="#fff" fill-rule="evenodd" d="M371.246 276.446c39.561 34.436 100.093 32.843 137.714-4.778 38.299-38.299 39.92-98.86 5.486-138.422l-143.2 143.2Z" clip-rule="evenodd"/></g></svg>